External Loads File
version=1
nRows=94
nColumns=13
Range=5.000000e-03-10 seconds
endheader
time 	forceRightX 	forceRightY 	forceRightZ 	pointRightX 	pointRightY 	pointRightZ 	forceLeftX 	forceLeftY 	forceLeftZ 	pointLeftX 	pointLeftY 	pointLeftZ 		
2.505000 -15.256762 70.787961 -0.000000 0.312296 0.392943 -0.106550 38.069536 124.049672 -0.000000 0.025610 0.250035 -0.340926
2.510000 -15.612888 71.021656 -0.000000 0.312157 0.393036 -0.106544 37.914702 124.383169 -0.000000 0.025690 0.249669 -0.340917
2.515000 -16.120066 71.226621 -0.000000 0.312065 0.393761 -0.106562 37.517177 124.762578 -0.000000 0.025771 0.249385 -0.340893
2.520000 -16.550743 71.435218 -0.000000 0.311959 0.394057 -0.106550 37.226698 125.084391 -0.000000 0.025850 0.249120 -0.340875
2.525000 -16.970629 71.618747 -0.000000 0.311860 0.394302 -0.106545 36.900908 125.401072 -0.000000 0.025913 0.248818 -0.340836
2.530000 -17.374132 71.773145 -0.000000 0.311763 0.394530 -0.106537 36.577754 125.728861 -0.000000 0.025981 0.248556 -0.340826
2.535000 -17.779789 71.894091 -0.000000 0.311677 0.394804 -0.106549 36.273973 126.092147 -0.000000 0.026033 0.248328 -0.340835
2.540000 -18.154199 71.991382 -0.000000 0.311600 0.394986 -0.106552 36.062904 126.479684 -0.000000 0.026076 0.248139 -0.340830
2.545000 -18.515408 72.065975 -0.000000 0.311527 0.395203 -0.106552 35.872381 126.898394 -0.000000 0.026130 0.247937 -0.340834
2.550000 -18.810155 72.141998 -0.000000 0.311469 0.395382 -0.106574 35.737960 127.310615 -0.000000 0.026174 0.247785 -0.340830
2.555000 -19.066105 72.225221 -0.000000 0.311416 0.395539 -0.106553 35.610323 127.706732 -0.000000 0.026228 0.247638 -0.340817
2.560000 -19.327720 72.316184 -0.000000 0.311336 0.395698 -0.106506 35.496954 128.075004 -0.000000 0.026262 0.247519 -0.340848
2.565000 -19.628645 72.416103 -0.000000 0.311303 0.395821 -0.106503 35.460535 128.393747 -0.000000 0.026285 0.247448 -0.340846
2.570000 -20.005297 72.527822 -0.000000 0.311272 0.395872 -0.106497 35.526986 128.641095 -0.000000 0.026311 0.247407 -0.340845
2.575000 -20.463597 72.675679 -0.000000 0.311244 0.395873 -0.106499 35.707939 128.780497 -0.000000 0.026344 0.247394 -0.340843
2.580000 -20.978964 72.910566 -0.000000 0.311232 0.395843 -0.106509 36.007128 128.762677 -0.000000 0.026342 0.247407 -0.340845
2.585000 -21.530455 73.292369 -0.000000 0.311245 0.395760 -0.106518 36.404571 128.545115 -0.000000 0.026340 0.247460 -0.340845
2.590000 -22.120515 73.869954 -0.000000 0.311251 0.395604 -0.106509 36.861386 128.109127 -0.000000 0.026332 0.247555 -0.340821
2.595000 -22.776271 74.666219 -0.000000 0.311260 0.395421 -0.106468 37.322555 127.468327 -0.000000 0.026317 0.247665 -0.340822
2.600000 -23.536642 75.676720 -0.000000 0.311225 0.395274 -0.106464 37.733864 126.658887 -0.000000 0.026309 0.247794 -0.340824
2.605000 -24.433990 76.892575 -0.000000 0.311164 0.395118 -0.106452 38.072346 125.713939 -0.000000 0.026331 0.247892 -0.340818
2.610000 -25.476755 78.331554 -0.000000 0.311095 0.394925 -0.106435 38.377675 124.641300 -0.000000 0.026340 0.248049 -0.340807
2.615000 -26.744011 80.013838 -0.000000 0.311054 0.394731 -0.106443 38.604704 123.474495 -0.000000 0.026360 0.248157 -0.340808
2.620000 -28.266879 81.992053 -0.000000 0.310951 0.394535 -0.106436 38.793462 122.225193 -0.000000 0.026377 0.248311 -0.340809
2.625000 -30.083436 84.320424 -0.000000 0.310826 0.394336 -0.106397 38.935718 120.912025 -0.000000 0.026397 0.248448 -0.340834
2.630000 -32.183062 87.044121 -0.000000 0.310680 0.394142 -0.106359 39.026603 119.543260 -0.000000 0.026402 0.248599 -0.340833
2.635000 -34.536427 90.157595 -0.000000 0.310503 0.393960 -0.106367 39.017122 118.150149 -0.000000 0.026452 0.248747 -0.340832
2.640000 -37.079053 93.616591 -0.000000 0.310263 0.393776 -0.106316 38.875569 116.777802 -0.000000 0.026518 0.248843 -0.340852
2.645000 -39.751254 97.369999 -0.000000 0.309947 0.393640 -0.106289 38.594467 115.475266 -0.000000 0.026600 0.248907 -0.340861
2.650000 -42.478639 101.415207 -0.000000 0.309607 0.393441 -0.106255 38.264100 114.253359 -0.000000 0.026705 0.248987 -0.340865
2.655000 -45.314082 105.760105 -0.000000 0.309232 0.393217 -0.106223 37.914813 113.116105 -0.000000 0.026814 0.249059 -0.340871
2.660000 -48.330051 110.468489 -0.000000 0.308863 0.392996 -0.106151 37.600509 112.022886 -0.000000 0.026910 0.249128 -0.340859
2.665000 -51.569467 115.675446 -0.000000 0.308529 0.392701 -0.106133 37.395052 110.905417 -0.000000 0.027018 0.249216 -0.340853
2.670000 -55.174667 121.506223 -0.000000 0.308150 0.392494 -0.106056 37.258029 109.733205 -0.000000 0.027105 0.249292 -0.340845
2.675000 -59.069352 128.174194 -0.000000 0.307818 0.392099 -0.106102 37.335137 108.414059 -0.000000 0.027167 0.249421 -0.340812
2.680000 -63.450087 135.711232 -0.000000 0.307429 0.391788 -0.106038 37.505356 106.951661 -0.000000 0.027241 0.249557 -0.340813
2.685000 -68.293617 144.169199 -0.000000 0.307094 0.391496 -0.105939 37.814958 105.317277 -0.000000 0.027279 0.249684 -0.340806
2.690000 -73.559116 153.531314 -0.000000 0.306704 0.391169 -0.105809 38.275932 103.530708 -0.000000 0.027304 0.249885 -0.340783
2.695000 -79.257020 163.680378 -0.000000 0.306315 0.390820 -0.105669 38.826238 101.666416 -0.000000 0.027354 0.250043 -0.340780
2.700000 -85.242626 174.492741 -0.000000 0.306035 0.390471 -0.105725 39.478351 99.778212 -0.000000 0.027401 0.250260 -0.340776
2.705000 -91.462912 185.733473 -0.000000 0.305681 0.390067 -0.105608 40.173672 97.935755 -0.000000 0.027423 0.250510 -0.340755
2.710000 -97.927747 197.108308 -0.000000 0.305367 0.389734 -0.105728 40.838379 96.193348 -0.000000 0.027449 0.250680 -0.340738
2.715000 -104.388703 208.451403 -0.000000 0.305213 0.389390 -0.105753 41.545050 94.514602 -0.000000 0.027453 0.250853 -0.340698
2.720000 -110.567770 219.630592 -0.000000 0.304984 0.388733 -0.105671 42.366695 92.825579 -0.000000 0.027465 0.251083 -0.340687
2.725000 -116.838472 230.233133 -0.000000 0.304733 0.388449 -0.105454 43.100214 91.147004 -0.000000 0.027444 0.251282 -0.340685
2.730000 -122.816431 240.295938 -0.000000 0.304593 0.388113 -0.105472 43.862989 89.336330 -0.000000 0.027429 0.251463 -0.340644
2.735000 -128.501164 249.724434 -0.000000 0.304516 0.387813 -0.105467 44.597572 87.330447 -0.000000 0.027414 0.251678 -0.340610
2.740000 -133.782704 258.537415 -0.000000 0.304655 0.387488 -0.105720 45.301008 85.068092 -0.000000 0.027407 0.251902 -0.340586
2.745000 -138.880178 266.651119 -0.000000 0.304558 0.387184 -0.105754 45.902499 82.577225 -0.000000 0.027379 0.252137 -0.340552
2.750000 -143.978163 274.057488 -0.000000 0.304534 0.387208 -0.105742 46.395365 79.905911 -0.000000 0.027355 0.252362 -0.340511
2.755000 -148.626963 281.104935 -0.000000 0.304452 0.386935 -0.105735 46.967502 77.013494 -0.000000 0.027328 0.252597 -0.340484
2.760000 -152.840681 287.895427 -0.000000 0.304348 0.386393 -0.105760 47.645990 73.946293 -0.000000 0.027305 0.252827 -0.340459
2.765000 -156.993685 294.338448 -0.000000 0.304298 0.386080 -0.105798 48.360249 70.804302 -0.000000 0.027285 0.253084 -0.340446
2.770000 -160.989578 300.611680 -0.000000 0.304184 0.385769 -0.105783 49.149761 67.600893 -0.000000 0.027272 0.253351 -0.340414
2.775000 -164.719406 306.916076 -0.000000 0.304106 0.385379 -0.105770 50.017548 64.343268 -0.000000 0.027257 0.253640 -0.340394
2.780000 -168.454380 313.237223 -0.000000 0.304020 0.385032 -0.105719 50.854683 61.100900 -0.000000 0.027258 0.253856 -0.340381
2.785000 -172.117838 319.701503 -0.000000 0.303880 0.384687 -0.105732 51.612237 57.891410 -0.000000 0.027265 0.254113 -0.340385
2.790000 -175.675886 326.340898 -0.000000 0.303769 0.384312 -0.105740 52.231013 54.748808 -0.000000 0.027260 0.254407 -0.340379
2.795000 -179.175418 333.077006 -0.000000 0.303671 0.383943 -0.105707 52.670252 51.728801 -0.000000 0.027264 0.254771 -0.340414
2.800000 -182.608931 339.829920 -0.000000 0.303576 0.383507 -0.105718 52.943454 48.869971 -0.000000 0.027276 0.255143 -0.340388
2.805000 -186.068236 346.472084 -0.000000 0.303510 0.383050 -0.105668 53.068013 46.191910 -0.000000 0.027280 0.255470 -0.340383
2.810000 -189.629787 352.904419 -0.000000 0.303372 0.382594 -0.105689 53.058889 43.671381 -0.000000 0.027275 0.255748 -0.340356
2.815000 -193.253458 359.100339 -0.000000 0.303313 0.382211 -0.105626 52.938749 41.248921 -0.000000 0.027287 0.256028 -0.340318
2.820000 -196.758200 365.106868 -0.000000 0.303153 0.381768 -0.105614 52.746977 38.853188 -0.000000 0.027291 0.256388 -0.340312
2.825000 -199.947760 370.990320 -0.000000 0.303099 0.381255 -0.105599 52.533007 36.434075 -0.000000 0.027277 0.256850 -0.340285
2.830000 -203.321129 376.476425 -0.000000 0.302950 0.380780 -0.105584 52.295546 34.058755 -0.000000 0.027305 0.257185 -0.340235
2.835000 -206.439534 381.838930 -0.000000 0.302882 0.380263 -0.105509 52.134798 31.670782 -0.000000 0.027290 0.257546 -0.340225
2.840000 -209.472818 387.060040 -0.000000 0.302731 0.379781 -0.105550 52.078319 29.298700 -0.000000 0.027228 0.257932 -0.340204
2.845000 -212.366639 392.258848 -0.000000 0.302602 0.379285 -0.105501 52.140943 26.926821 -0.000000 0.027216 0.258363 -0.340219
2.850000 -215.248280 397.431775 -0.000000 0.302487 0.378726 -0.105476 52.292885 24.549374 -0.000000 0.027196 0.258692 -0.340236
2.855000 -217.866497 402.725170 -0.000000 0.302344 0.378129 -0.105441 52.517258 22.111599 -0.000000 0.027151 0.259167 -0.340303
2.860000 -220.511789 407.942239 -0.000000 0.302203 0.377568 -0.105449 52.770456 19.645408 -0.000000 0.027114 0.259616 -0.340322
2.865000 -222.948980 413.146002 -0.000000 0.302084 0.376984 -0.105475 53.051871 17.130775 -0.000000 0.027052 0.260121 -0.340329
2.870000 -225.415903 418.145863 -0.000000 0.301922 0.376375 -0.105454 53.348410 14.619771 -0.000000 0.027002 0.260523 -0.340319
2.875000 -227.528855 423.108355 -0.000000 0.301846 0.375699 -0.105359 53.666544 12.087669 -0.000000 0.026949 0.260993 -0.340310
2.880000 -229.531410 427.885451 -0.000000 0.301747 0.375091 -0.105348 53.976090 9.589267 -0.000000 0.026927 0.261530 -0.340330
2.885000 -231.253778 432.555925 -0.000000 0.301635 0.374431 -0.105307 54.251983 7.132258 -0.000000 0.026866 0.262089 -0.340358
2.890000 -232.872095 436.990568 -0.000000 0.301573 0.373742 -0.105224 54.462023 4.777289 -0.000000 0.026808 0.262555 -0.340401
2.895000 -234.398960 441.114589 -0.000000 0.301492 0.373114 -0.105237 54.587363 2.566952 -0.000000 0.026757 0.263047 -0.340395
2.900000 -235.523681 445.004152 -0.000000 0.301490 0.372431 -0.105143 54.622750 0.500258 -0.000000 0.026703 0.263652 -0.340333
2.905000 -236.582024 448.398632 -0.000000 0.301455 0.371716 -0.105155 54.571661 -1.351768 -0.000000 0.026683 0.264250 -0.340353
2.910000 -237.725780 451.167002 -0.000000 0.301426 0.371041 -0.105116 54.449945 -2.960139 -0.000000 0.026629 0.264788 -0.340406
2.915000 -238.606835 453.475156 -0.000000 0.301501 0.370343 -0.105078 54.272745 -4.381847 -0.000000 0.026540 0.265424 -0.340450
2.920000 -239.499022 455.178010 -0.000000 0.301513 0.369612 -0.105064 54.056010 -5.611744 -0.000000 0.026413 0.266037 -0.340485
2.925000 -240.271145 456.346753 -0.000000 0.301568 0.368904 -0.105060 53.811295 -6.686432 -0.000000 0.026304 0.266732 -0.340421
2.930000 -241.030423 456.928552 -0.000000 0.301609 0.368177 -0.105068 53.560597 -7.602380 -0.000000 0.026148 0.267355 -0.340412
2.935000 -241.521954 457.063930 -0.000000 0.301733 0.367458 -0.105036 53.331267 -8.394762 -0.000000 0.025950 0.268014 -0.340432
2.940000 -241.630537 456.813995 -0.000000 0.301805 0.366714 -0.105092 53.156641 -9.082295 -0.000000 0.025803 0.268785 -0.340437
2.945000 -241.573041 456.043367 -0.000000 0.301932 0.365976 -0.105047 53.069284 -9.644944 -0.000000 0.025608 0.269447 -0.340438
2.950000 -240.945447 454.922111 -0.000000 0.302082 0.365203 -0.105075 53.064856 -10.135232 -0.000000 0.025408 0.270214 -0.340453
2.955000 -240.055272 453.235118 -0.000000 0.302208 0.364438 -0.105047 53.125712 -10.521413 -0.000000 0.025232 0.270937 -0.340468
2.960000 -238.622884 451.089755 -0.000000 0.302345 0.363641 -0.105088 53.211280 -10.835934 -0.000000 0.025004 0.271718 -0.340471
2.965000 -236.942362 448.316110 -0.000000 0.302531 0.362860 -0.105069 53.300523 -11.041617 -0.000000 0.024798 0.272463 -0.340512
2.970000 -234.848861 445.016601 -0.000000 0.302737 0.362076 -0.105037 53.367626 -11.155921 -0.000000 0.024570 0.273304 -0.340469
